<svg width="14" height="24" viewBox="0 0 14 24" fill="none" xmlns="http://www.w3.org/2000/svg">
<path d="M12.9992 0.0049936L9.88695 0C6.39043 0 4.13082 2.31828 4.13082 5.90643V8.62969H1.00158C0.731177 8.62969 0.512207 8.84891 0.512207 9.11932V13.065C0.512207 13.3354 0.731426 13.5544 1.00158 13.5544H4.13082V23.5106C4.13082 23.781 4.34979 24 4.62019 24H8.70296C8.97337 24 9.19234 23.7808 9.19234 23.5106V13.5544H12.8512C13.1216 13.5544 13.3405 13.3354 13.3405 13.065L13.342 9.11932C13.342 8.98948 13.2903 8.86514 13.1987 8.77326C13.1071 8.68138 12.9822 8.62969 12.8524 8.62969H9.19234V6.32115C9.19234 5.21157 9.45675 4.64829 10.9021 4.64829L12.9987 4.64755C13.2689 4.64755 13.4878 4.42833 13.4878 4.15817V0.494367C13.4878 0.224462 13.2691 0.00549296 12.9992 0.0049936Z" fill="white"/>
</svg>
