<svg width="24" height="25" viewBox="0 0 24 25" fill="none" xmlns="http://www.w3.org/2000/svg">
<path d="M17.3766 0H6.62295C2.97106 0 0 3.095 0 6.89905V18.1008C0 21.905 2.97106 24.9999 6.62295 24.9999H17.3766C21.0288 24.9999 23.9999 21.9049 23.9999 18.1008V6.89905C24 3.095 21.0288 0 17.3766 0ZM21.8706 18.1008C21.8706 20.6819 19.8547 22.7817 17.3768 22.7817H6.62295C4.1452 22.7819 2.12938 20.6819 2.12938 18.1008V6.89905C2.12938 4.31806 4.1452 2.21811 6.62295 2.21811H17.3766C19.8545 2.21811 21.8705 4.31806 21.8705 6.89905V18.1008H21.8706Z" fill="white"/>
</svg>
