<svg width="104" height="104" viewBox="0 0 104 104" fill="none" xmlns="http://www.w3.org/2000/svg">
<g clip-path="url(#clip0_2_252)">
<path d="M73.8313 55.0842H96.5312V76.3096H73.8313V55.0842Z" fill="#00C8FF"/>
<path d="M7.79749 55.0842H30.4974V76.3096H7.79749V55.0842Z" fill="#00C8FF"/>
<path d="M41.5494 55.0842H62.7794V89.8184H41.5494V55.0842Z" fill="#00C8FF"/>
<path d="M95.8333 11.8265H8.49535C4.30542 11.8265 0.896729 15.2354 0.896729 19.4252V34.0462C0.896729 37.7323 2.85952 40.9684 5.79479 42.7645V90.4807C5.79479 91.5867 6.69137 92.4833 7.79743 92.4833H96.5312C97.6373 92.4833 98.5339 91.5867 98.5339 90.4807V42.7645C101.469 40.9684 103.432 37.7323 103.432 34.0462V19.4252C103.432 15.2354 100.023 11.8265 95.8333 11.8265ZM83.005 34.0462C83.005 37.4694 80.2201 40.2542 76.7968 40.2542C73.3735 40.2542 70.5886 37.4694 70.5886 34.0462V15.8318H83.005V34.0462ZM66.5833 34.0462C66.5833 37.4694 63.7985 40.2542 60.3752 40.2542C56.9518 40.2542 54.167 37.4694 54.167 34.0462V15.8318H66.5833V34.0462ZM50.1617 34.0462C50.1617 37.4694 47.3768 40.2542 43.9535 40.2542C40.5302 40.2542 37.7453 37.4694 37.7453 34.0462V15.8318H50.1617V34.0462ZM33.74 34.0462C33.74 37.4694 30.9552 40.2542 27.5319 40.2542C24.1085 40.2542 21.3237 37.4694 21.3237 34.0462V15.8318H33.74V34.0462ZM4.90201 19.4252C4.90201 17.4437 6.51414 15.8318 8.49535 15.8318H17.3184V34.0462C17.3184 37.4694 14.5335 40.2542 11.1102 40.2542C7.68688 40.2542 4.90201 37.4694 4.90201 34.0462V19.4252ZM94.5286 88.478H9.80007V44.176C10.229 44.2311 10.6664 44.2597 11.1102 44.2597C14.4714 44.2597 17.4588 42.6276 19.321 40.1142C21.1833 42.6276 24.1706 44.2597 27.5319 44.2597C30.8931 44.2597 33.8804 42.6276 35.7427 40.1142C37.6049 42.6276 40.5923 44.2597 43.9535 44.2597C47.3147 44.2597 50.3021 42.6276 52.1643 40.1142C54.0266 42.6276 57.0139 44.2597 60.3752 44.2597C63.7364 44.2597 66.7237 42.6276 68.586 40.1142C70.4482 42.6276 73.4356 44.2597 76.7968 44.2597C80.1581 44.2597 83.1454 42.6276 85.0076 40.1142C86.8699 42.6276 89.8572 44.2597 93.2185 44.2597C93.6623 44.2597 94.0996 44.2313 94.5286 44.176V88.478ZM99.4267 34.0462C99.4267 37.4694 96.6418 40.2542 93.2185 40.2542C89.7952 40.2542 87.0103 37.4694 87.0103 34.0462V15.8318H95.8333C97.8147 15.8318 99.4267 17.4437 99.4267 19.4252V34.0462Z" fill="black"/>
</g>
<defs>
<clipPath id="clip0_2_252">
<rect width="102.535" height="102.535" fill="white" transform="translate(0.896729 0.887329)"/>
</clipPath>
</defs>
</svg>
