<svg width="86" height="105" viewBox="0 0 86 105" fill="none" xmlns="http://www.w3.org/2000/svg">
<path d="M62.6587 70.4631C61.9714 70.4631 61.2912 70.4327 60.6191 70.3736V84.3177H4.0792V17.4957H60.6191V28.7839C61.2912 28.7248 61.9714 28.6944 62.6587 28.6944C63.3461 28.6944 64.0263 28.7248 64.6983 28.7839V10.063C64.6983 4.6532 60.2806 0.251953 54.8503 0.251953H9.848C4.41777 0.251953 0 4.6532 0 10.063V94.85C0 100.27 4.40941 104.679 9.82944 104.679H54.8689C60.2889 104.679 64.6983 100.27 64.6983 94.85V70.3736C64.0265 70.4329 63.3461 70.4631 62.6587 70.4631ZM4.0792 10.063C4.0792 6.90227 6.66704 4.33115 9.848 4.33115H54.8503C58.0313 4.33115 60.6191 6.90227 60.6191 10.063V13.4165H4.0792V10.063ZM60.6191 94.85C60.6191 98.0208 58.0397 100.6 54.8689 100.6H9.82944C6.65888 100.6 4.0792 98.0208 4.0792 94.85V88.3969H60.6191V94.85Z" fill="black"/>
<path d="M30.9896 96.5382H33.7089C34.8354 96.5382 35.7485 95.6249 35.7485 94.4986C35.7485 93.3721 34.8354 92.459 33.7089 92.459H30.9896C29.8631 92.459 28.95 93.3721 28.95 94.4986C28.95 95.6249 29.8631 96.5382 30.9896 96.5382Z" fill="black"/>
<path d="M62.6586 26.6548C49.998 26.6548 39.7347 36.9182 39.7347 49.5789C39.7347 54.605 41.3523 59.2531 44.0952 63.0314L39.7347 71.8072L52.4053 70.0874C55.4906 71.6328 58.9731 72.5027 62.6586 72.5027C75.3192 72.5027 85.5827 62.2393 85.5827 49.5789C85.5827 36.9185 75.3192 26.6548 62.6586 26.6548Z" fill="#00C8FF"/>
<path d="M64.8459 55.5124H64.6983V47.983H64.8459C65.9724 47.983 66.8855 47.0697 66.8855 45.9434C66.8855 44.8171 65.9724 43.9038 64.8459 43.9038H60.4716C59.3451 43.9038 58.432 44.8171 58.432 45.9434C58.432 47.0697 59.3451 47.983 60.4716 47.983H60.6193V55.5124H60.4716C59.3451 55.5124 58.432 56.4257 58.432 57.552C58.432 58.6783 59.3451 59.5916 60.4716 59.5916H64.8459C65.9724 59.5916 66.8855 58.6783 66.8855 57.552C66.8855 56.4257 65.9724 55.5124 64.8459 55.5124Z" fill="white"/>
</svg>
